<svg width="25" height="25" viewBox="0 0 25 25" fill="none" xmlns="http://www.w3.org/2000/svg">
<path d="M12.4512 1.08936C11.416 1.08936 10.4736 1.61572 9.98535 2.43848L9.77051 2.80078L9.39941 2.60156C9.05273 2.41357 8.65723 2.31396 8.26172 2.31396C6.87988 2.31396 5.75684 3.46484 5.75684 4.91211C5.75684 6.20605 6.66504 7.28516 7.88086 7.48047L8.25195 7.53906V10.1465C11.0791 9.60449 13.916 9.58008 16.748 10.1465V6.74316L16.9824 6.61621C17.749 6.21094 18.2568 5.3418 18.2568 4.36279C18.2568 2.95654 17.2461 1.8667 16.04 1.8667C15.7227 1.8667 15.4053 1.94531 15.1172 2.09717L14.8145 2.25342L14.5898 2.00488C14.0625 1.43018 13.2813 1.08936 12.4512 1.08936ZM12.5 10.6006C11.25 10.6006 10.0049 10.7178 8.75488 10.9424C8.71094 11.2354 8.69141 11.5381 8.69141 11.8506C8.69141 13.2666 9.14063 14.5459 9.84375 15.4492C10.5469 16.3525 11.4795 16.8799 12.5 16.8799C13.5205 16.8799 14.4531 16.3525 15.1562 15.4492C15.8594 14.5459 16.3086 13.2666 16.3086 11.8506C16.3086 11.5381 16.2842 11.2305 16.2451 10.9375C14.9951 10.708 13.75 10.5957 12.5 10.6006ZM10.1904 16.9922L5.83496 18.4424L4.46875 23.9111H15.7031L14.9951 18.9453L15.8643 18.8184L16.5918 23.9111H20.5322L19.165 18.4424L14.8096 16.9922C14.1357 17.4756 13.3447 17.7588 12.5 17.7588C11.6553 17.7588 10.8643 17.4756 10.1904 16.9922ZM13.5742 19.5654C13.7037 19.5654 13.8279 19.6169 13.9195 19.7084C14.0111 19.8 14.0625 19.9242 14.0625 20.0537C14.0625 20.1832 14.0111 20.3074 13.9195 20.399C13.8279 20.4905 13.7037 20.542 13.5742 20.542C13.4447 20.542 13.3205 20.4905 13.229 20.399C13.1374 20.3074 13.0859 20.1832 13.0859 20.0537C13.0859 19.9242 13.1374 19.8 13.229 19.7084C13.3205 19.6169 13.4447 19.5654 13.5742 19.5654ZM13.916 21.8115C14.0455 21.8115 14.1697 21.863 14.2613 21.9545C14.3529 22.0461 14.4043 22.1703 14.4043 22.2998C14.4043 22.4293 14.3529 22.5535 14.2613 22.6451C14.1697 22.7366 14.0455 22.7881 13.916 22.7881C13.7865 22.7881 13.6623 22.7366 13.5707 22.6451C13.4792 22.5535 13.4277 22.4293 13.4277 22.2998C13.4277 22.1703 13.4792 22.0461 13.5707 21.9545C13.6623 21.863 13.7865 21.8115 13.916 21.8115Z" fill="black"/>
</svg>
