<svg width="30" height="30" viewBox="0 0 30 30" fill="none" xmlns="http://www.w3.org/2000/svg">
<path d="M8.65113 15.6251L15.4499 22.4239C15.5715 22.5455 15.6353 22.6889 15.6411 22.8539C15.6461 23.0189 15.5795 23.1701 15.4411 23.3076C15.3045 23.441 15.1574 23.5089 14.9999 23.5114C14.8432 23.513 14.6957 23.4451 14.5574 23.3076L6.95738 15.7076C6.84822 15.5976 6.77155 15.486 6.72738 15.3726C6.68322 15.2593 6.66113 15.1351 6.66113 15.0001C6.66113 14.8651 6.68322 14.741 6.72738 14.6276C6.77155 14.5143 6.84822 14.403 6.95738 14.2939L14.5574 6.69263C14.674 6.57596 14.8161 6.51346 14.9836 6.50513C15.152 6.4968 15.3049 6.5593 15.4424 6.69263C15.5799 6.83013 15.6486 6.97846 15.6486 7.13763C15.6486 7.29763 15.5799 7.44638 15.4424 7.58388L8.64988 14.3751H23.1249C23.3032 14.3751 23.452 14.4347 23.5711 14.5539C23.6903 14.673 23.7499 14.8218 23.7499 15.0001C23.7499 15.1785 23.6903 15.3272 23.5711 15.4464C23.452 15.5655 23.3032 15.6251 23.1249 15.6251H8.65113Z" fill="black"/>
</svg>
