<svg width="22" height="22" viewBox="0 0 22 22" fill="none" xmlns="http://www.w3.org/2000/svg">
<path d="M10.5418 2.75C12.8514 2.75 15.0664 3.66748 16.6995 5.30061C18.3327 6.93374 19.2502 9.14874 19.2502 11.4583C19.2502 13.7679 18.3327 15.9829 16.6995 17.6161C15.0664 19.2492 12.8514 20.1667 10.5418 20.1667C8.23224 20.1667 6.01724 19.2492 4.38411 17.6161C2.75098 15.9829 1.8335 13.7679 1.8335 11.4583C1.8335 9.14874 2.75098 6.93374 4.38411 5.30061C6.01724 3.66748 8.23224 2.75 10.5418 2.75ZM10.5418 3.66667C8.47535 3.66667 6.49351 4.48757 5.03229 5.94879C3.57107 7.41001 2.75016 9.39185 2.75016 11.4583C2.75016 13.5248 3.57107 15.5067 5.03229 16.9679C6.49351 18.4291 8.47535 19.25 10.5418 19.25C11.565 19.25 12.5782 19.0485 13.5236 18.6569C14.4689 18.2653 15.3278 17.6914 16.0514 16.9679C16.7749 16.2444 17.3488 15.3854 17.7404 14.4401C18.132 13.4947 18.3335 12.4815 18.3335 11.4583C18.3335 9.39185 17.5126 7.41001 16.0514 5.94879C14.5901 4.48757 12.6083 3.66667 10.5418 3.66667ZM10.0835 6.41667H11.0002V11.385L15.3085 13.8692L14.8502 14.6667L10.0835 11.9167V6.41667Z" fill="black"/>
</svg>
