<svg width="18" height="18" viewBox="0 0 18 18" fill="none" xmlns="http://www.w3.org/2000/svg">
<g clip-path="url(#clip0_85_926)">
<path d="M65.7 -2.69995H-91.8V20.7H65.7V-2.69995Z" stroke="#F24253" stroke-width="2" stroke-miterlimit="10"/>
<path d="M6.44995 16.1794L1.6903 14.8146C1.4896 14.757 1.3501 14.5617 1.3501 14.3389V3.84446C1.3501 3.52091 1.63585 3.28511 1.927 3.36881L6.44995 4.66571V16.1794Z" fill="#D0D5DC"/>
<path d="M6.44995 16.1793L11.5503 14.7168V3.20312L6.44995 4.66562V16.1793Z" fill="#E1E4E7"/>
<path d="M16.0732 16.0137L11.5503 14.7168V3.20312L16.3099 4.56798C16.5106 4.62558 16.6501 4.82088 16.6501 5.04363V15.5376C16.6501 15.8612 16.3644 16.0974 16.0732 16.0137Z" fill="#D0D5DC"/>
<path d="M11.8837 8.7691C12.317 8.311 13.1018 7.48751 13.7971 6.78866C15.1223 5.45666 15.2128 3.1837 13.8713 1.8679C13.2269 1.2361 12.3886 0.920205 11.5502 0.920655C10.7119 0.920655 9.87351 1.2361 9.22956 1.8679C7.88766 3.1837 7.97811 5.45711 9.30381 6.7891C9.99906 7.48796 10.7848 8.31145 11.219 8.7691C11.3999 8.9599 11.7032 8.9599 11.8837 8.7691Z" fill="#DC5257"/>
<path d="M11.5506 5.22001C12.0941 5.22001 12.5347 4.77939 12.5347 4.23586C12.5347 3.69233 12.0941 3.25171 11.5506 3.25171C11.007 3.25171 10.5664 3.69233 10.5664 4.23586C10.5664 4.77939 11.007 5.22001 11.5506 5.22001Z" fill="#FBFBFB"/>
</g>
<defs>
<clipPath id="clip0_85_926">
<rect width="18" height="18" fill="white"/>
</clipPath>
</defs>
</svg>
