<svg width="40" height="40" viewBox="0 0 40 40" fill="none" xmlns="http://www.w3.org/2000/svg">
<path d="M20 32.596C11.851 32.596 5.10104 29.167 3.77404 24.666C3.74804 24.883 3.71704 25.099 3.71704 25.32C3.71704 25.362 3.72704 25.402 3.72804 25.443C3.84304 30.595 11.079 34.752 20 34.752C28.921 34.752 36.157 30.595 36.272 25.443C36.272 25.402 36.283 25.362 36.283 25.32C36.283 25.099 36.252 24.883 36.226 24.666C34.899 29.167 28.149 32.596 20 32.596Z" fill="#179614"/>
<path d="M35.847 23.5439L21.763 31.1519C20.685 31.7339 19.386 31.7339 18.308 31.1519L4.15202 23.5049C3.89702 23.3669 3.69802 23.1839 3.52602 22.9839C3.52602 23.0069 3.52002 23.0279 3.52002 23.0509C3.52002 23.6029 3.61802 24.1399 3.77302 24.6659C5.10002 29.1669 11.85 32.5959 19.999 32.5959C28.148 32.5959 34.898 29.1669 36.225 24.6659C36.38 24.1399 36.478 23.6029 36.478 23.0509C36.478 23.0409 36.475 23.0299 36.475 23.0199C36.302 23.2209 36.104 23.4049 35.847 23.5439Z" fill="#6E452C"/>
<path d="M35.7319 19.532L35.6489 19.493C34.0289 24.408 27.6439 27.54 19.9999 27.54C12.3559 27.54 5.93791 24.393 4.33791 19.458L4.23791 19.507C2.85391 20.181 2.61391 21.926 3.52691 22.984C3.69891 23.183 3.89791 23.367 4.15291 23.505L18.3089 31.152C19.3869 31.734 20.6859 31.734 21.7639 31.152L35.8479 23.544C36.1049 23.405 36.3049 23.221 36.4769 23.02C37.3939 21.953 37.1389 20.191 35.7329 19.532H35.7319Z" fill="#FFD16B"/>
<path d="M20 27.5399C27.645 27.5399 34.03 24.4069 35.649 19.4929C35.692 19.3619 35.734 19.2309 35.77 19.0979C33.06 22.5819 27.025 25.0119 20 25.0119C12.975 25.0119 6.93998 22.5829 4.22998 19.0979C4.26298 19.2199 4.29898 19.3389 4.33798 19.4589C5.93898 24.3939 12.337 27.5399 20 27.5399Z" fill="#ED0000"/>
<path d="M20 34.7511C11.079 34.7511 3.843 30.5941 3.728 25.4421C3.605 26.0071 3.521 26.5851 3.521 27.1891C3.521 33.6791 10.899 38.0001 20 38.0001C29.101 38.0001 36.479 33.6801 36.479 27.1891C36.479 26.5851 36.395 26.0071 36.272 25.4421C36.157 30.5941 28.921 34.7511 20 34.7511Z" fill="#FF9E26"/>
<path d="M20 25.011C27.025 25.011 33.06 22.582 35.77 19.097C36.746 17.842 37.303 16.454 37.303 14.988C37.303 9.45302 31.012 1.99902 20 1.99902C8.98802 1.99902 2.69702 9.45302 2.69702 14.989C2.69702 16.455 3.25302 17.843 4.23002 19.098C6.94002 22.582 12.975 25.011 20 25.011ZM26.917 7.57302C27.165 7.27402 27.609 7.23302 27.907 7.48102C28.206 7.72902 28.247 8.17302 27.999 8.47102C27.841 8.66102 27.278 8.89302 26.89 9.03602C26.714 9.10102 26.533 8.95102 26.565 8.76602C26.635 8.35802 26.759 7.76302 26.917 7.57302ZM21.983 11.793C22.173 11.635 22.769 11.511 23.177 11.441C23.362 11.409 23.512 11.59 23.447 11.766C23.304 12.154 23.072 12.717 22.882 12.875C22.583 13.123 22.14 13.082 21.892 12.783C21.644 12.484 21.684 12.041 21.983 11.793ZM18.555 5.16702C18.801 5.14402 19.363 5.37802 19.739 5.55202C19.91 5.63102 19.931 5.86402 19.778 5.97302C19.44 6.21202 18.931 6.54602 18.685 6.56802C18.298 6.60402 17.956 6.31902 17.92 5.93202C17.884 5.54502 18.168 5.20302 18.555 5.16702ZM16.072 10.364C16.48 10.434 17.076 10.558 17.266 10.716C17.565 10.964 17.606 11.408 17.358 11.706C17.11 12.005 16.666 12.046 16.368 11.798C16.178 11.64 15.946 11.078 15.803 10.689C15.738 10.513 15.887 10.332 16.072 10.364ZM11.403 8.30502C11.561 8.11502 12.124 7.88302 12.512 7.74002C12.688 7.67502 12.869 7.82502 12.837 8.01002C12.767 8.41802 12.643 9.01402 12.485 9.20402C12.237 9.50302 11.793 9.54402 11.495 9.29602C11.196 9.04802 11.155 8.60302 11.403 8.30502Z" fill="#FF9E26"/>
<path d="M22.8822 12.875C23.0722 12.717 23.3042 12.155 23.4472 11.766C23.5122 11.59 23.3622 11.409 23.1772 11.441C22.7692 11.511 22.1732 11.635 21.9832 11.793C21.6842 12.041 21.6432 12.485 21.8912 12.783C22.1392 13.082 22.5842 13.123 22.8822 12.875Z" fill="#FFD16B"/>
<path d="M16.3671 11.7969C16.6661 12.0449 17.1091 12.0039 17.3571 11.7049C17.6051 11.4059 17.5641 10.9629 17.2651 10.7149C17.0751 10.5569 16.4791 10.4329 16.0711 10.3629C15.8861 10.3319 15.7361 10.5119 15.8011 10.6879C15.9441 11.0759 16.1761 11.6389 16.3661 11.7969H16.3671Z" fill="#FFD16B"/>
<path d="M26.8912 9.03697C27.2792 8.89397 27.8422 8.66197 28.0002 8.47197C28.2482 8.17297 28.2072 7.72997 27.9082 7.48197C27.6092 7.23397 27.1662 7.27497 26.9182 7.57397C26.7602 7.76397 26.6362 8.35997 26.5662 8.76797C26.5342 8.95297 26.7152 9.10297 26.8912 9.03797V9.03697Z" fill="#FFD16B"/>
<path d="M18.6842 6.567C18.9302 6.544 19.4392 6.211 19.7772 5.972C19.9302 5.863 19.9092 5.629 19.7382 5.551C19.3622 5.378 18.8002 5.14399 18.5542 5.16599C18.1672 5.20199 17.8832 5.544 17.9182 5.931C17.9542 6.318 18.2972 6.60199 18.6842 6.567Z" fill="#FFD16B"/>
<path d="M12.4861 9.20306C12.6441 9.01306 12.7681 8.41706 12.8381 8.00906C12.8701 7.82406 12.6891 7.67406 12.5131 7.73906C12.1251 7.88206 11.5621 8.11406 11.4041 8.30406C11.1561 8.60306 11.1971 9.04606 11.4961 9.29406C11.7951 9.54206 12.2381 9.50106 12.4861 9.20206V9.20306Z" fill="#FFD16B"/>
</svg>
