<svg width="36" height="44" viewBox="0 0 36 44" fill="none" xmlns="http://www.w3.org/2000/svg">
<path d="M16.2715 2.33594C16.8734 0.887945 18.9235 0.88795 19.5254 2.33594L21.9668 8.21387C22.0047 8.30519 22.091 8.36718 22.1885 8.375L28.5264 8.88379C30.0896 9.00962 30.7198 10.9612 29.5312 11.9805L24.7031 16.1211C24.6284 16.1852 24.5952 16.2864 24.6182 16.3828L26.0938 22.5752C26.4562 24.0981 24.8003 25.3071 23.4609 24.4883L18.0342 21.1699C17.9507 21.119 17.8462 21.119 17.7627 21.1699L12.3359 24.4883C10.9966 25.3071 9.34067 24.0981 9.70312 22.5752L11.1787 16.3828C11.2017 16.2864 11.1685 16.1852 11.0938 16.1211L6.26562 11.9805C5.0771 10.9612 5.70729 9.00962 7.27051 8.88379L13.6084 8.375C13.7059 8.36718 13.7921 8.30519 13.8301 8.21387L16.2715 2.33594Z" fill="white" stroke="black" stroke-width="1.5"/>
<path d="M0 37.89H8.17V38.56H0V37.89ZM0.99 39.38H7.12V41.44H1.82V42.54H1.01V40.83H6.31V40.02H0.99V39.38ZM1.01 42.34H7.39V42.99H1.01V42.34ZM3.61 34.66H4.33V34.95C4.33 35.23 4.26667 35.49 4.14 35.73C4.02 35.97 3.84333 36.1867 3.61 36.38C3.38333 36.5733 3.11667 36.7433 2.81 36.89C2.51 37.03 2.18 37.1467 1.82 37.24C1.46667 37.3333 1.09667 37.4 0.71 37.44L0.44 36.8C0.773333 36.7733 1.09333 36.7233 1.4 36.65C1.71333 36.5767 2.00333 36.4833 2.27 36.37C2.53667 36.2567 2.77 36.1267 2.97 35.98C3.17 35.8333 3.32667 35.6733 3.44 35.5C3.55333 35.3267 3.61 35.1433 3.61 34.95V34.66ZM3.84 34.66H4.56V34.95C4.56 35.1433 4.61667 35.3267 4.73 35.5C4.84333 35.6733 5 35.8333 5.2 35.98C5.4 36.1267 5.63333 36.2567 5.9 36.37C6.16667 36.4833 6.45333 36.5767 6.76 36.65C7.07333 36.7233 7.4 36.7733 7.74 36.8L7.47 37.44C7.08333 37.4 6.71 37.3333 6.35 37.24C5.99667 37.1467 5.66667 37.03 5.36 36.89C5.06 36.7433 4.79333 36.5733 4.56 36.38C4.33333 36.1867 4.15667 35.97 4.03 35.73C3.90333 35.49 3.84 35.23 3.84 34.95V34.66ZM0.75 34.39H7.43V35.05H0.75V34.39Z" fill="black"/>
<path d="M12.9392 35.02H13.7492C13.7492 35.66 13.6726 36.2833 13.5192 36.89C13.3726 37.49 13.1359 38.0633 12.8092 38.61C12.4892 39.1567 12.0659 39.6633 11.5392 40.13C11.0192 40.5967 10.3859 41.0133 9.63922 41.38L9.19922 40.72C10.0592 40.2933 10.7626 39.8 11.3092 39.24C11.8626 38.68 12.2726 38.0567 12.5392 37.37C12.8059 36.6833 12.9392 35.9433 12.9392 35.15V35.02ZM9.58922 35.02H13.3492V35.69H9.58922V35.02ZM15.8092 34.03H16.6292V43.08H15.8092V34.03ZM13.4092 36.52H15.9692V37.19H13.4092V36.52ZM13.3092 38.94H15.8792V39.62H13.3092V38.94Z" fill="black"/>
<path d="M20.6584 35.53H21.3284V35.92C21.3284 36.4333 21.2218 36.9067 21.0084 37.34C20.8018 37.7733 20.5084 38.15 20.1284 38.47C19.7484 38.79 19.3051 39.0333 18.7984 39.2L18.3984 38.54C18.8451 38.4 19.2384 38.2 19.5784 37.94C19.9184 37.68 20.1818 37.3767 20.3684 37.03C20.5618 36.6833 20.6584 36.3133 20.6584 35.92V35.53ZM20.7984 35.53H21.4784V35.92C21.4784 36.28 21.5684 36.6233 21.7484 36.95C21.9351 37.27 22.1951 37.5567 22.5284 37.81C22.8618 38.0567 23.2484 38.2467 23.6884 38.38L23.3084 39.02C22.8018 38.8667 22.3584 38.64 21.9784 38.34C21.6051 38.0333 21.3151 37.6733 21.1084 37.26C20.9018 36.8467 20.7984 36.4 20.7984 35.92V35.53ZM18.6484 35.09H23.4784V35.76H18.6484V35.09ZM20.6584 34H21.4884V35.37H20.6584V34ZM24.5884 34.04H25.4184V39.29H24.5884V34.04ZM25.1884 36.27H26.7484V36.96H25.1884V36.27ZM22.1784 40.04H22.8784V40.28C22.8784 40.6333 22.7918 40.9633 22.6184 41.27C22.4518 41.5767 22.2151 41.85 21.9084 42.09C21.6084 42.33 21.2618 42.53 20.8684 42.69C20.4751 42.8567 20.0551 42.9767 19.6084 43.05L19.2984 42.41C19.6851 42.3567 20.0518 42.2633 20.3984 42.13C20.7451 41.9967 21.0518 41.8367 21.3184 41.65C21.5851 41.4567 21.7951 41.2433 21.9484 41.01C22.1018 40.7767 22.1784 40.5333 22.1784 40.28V40.04ZM22.3284 40.04H23.0384V40.28C23.0384 40.5333 23.1151 40.7733 23.2684 41C23.4284 41.2267 23.6418 41.4367 23.9084 41.63C24.1751 41.8233 24.4784 41.99 24.8184 42.13C25.1651 42.2633 25.5318 42.36 25.9184 42.42L25.6084 43.06C25.1618 42.98 24.7418 42.8567 24.3484 42.69C23.9551 42.53 23.6051 42.33 23.2984 42.09C22.9984 41.8433 22.7618 41.5667 22.5884 41.26C22.4151 40.9533 22.3284 40.6267 22.3284 40.28V40.04ZM19.6484 39.78H25.5684V40.46H19.6484V39.78Z" fill="black"/>
<path d="M34.1877 34.04H35.0177V43.09H34.1877V34.04ZM31.5377 35.02H32.3577C32.3577 35.6733 32.2777 36.3033 32.1177 36.91C31.9643 37.5167 31.721 38.0933 31.3877 38.64C31.0543 39.18 30.621 39.6833 30.0877 40.15C29.5543 40.6167 28.9077 41.0333 28.1477 41.4L27.7077 40.73C28.581 40.31 29.301 39.82 29.8677 39.26C30.4343 38.7 30.8543 38.0767 31.1277 37.39C31.401 36.6967 31.5377 35.95 31.5377 35.15V35.02ZM28.1277 35.02H31.8877V35.69H28.1277V35.02Z" fill="black"/>
</svg>
