<svg width="40" height="40" viewBox="0 0 40 40" fill="none" xmlns="http://www.w3.org/2000/svg">
<g clip-path="url(#clip0_13_1434)">
<path d="M17.8111 29.01H22.1901C23.1681 29.01 23.9611 29.804 23.9611 30.781V36.931H16.0391V30.781C16.0391 29.803 16.8331 29.01 17.8101 29.01H17.8111Z" fill="#6B7683"/>
<path d="M35.116 14.6261L21.037 3.4311C20.43 2.9481 19.57 2.9481 18.962 3.4311L4.88498 14.6261C4.08998 15.2581 3.62598 16.2191 3.62598 17.2351V32.9321C3.62598 35.1411 5.41698 36.9321 7.62598 36.9321H16.667V30.6771C16.667 29.7571 17.413 29.0101 18.334 29.0101H21.667C22.587 29.0101 23.334 29.7561 23.334 30.6771V36.9321H32.374C34.583 36.9321 36.374 35.1411 36.374 32.9321V17.2351C36.374 16.2191 35.912 15.2581 35.116 14.6261Z" fill="#D0D5DA"/>
<path d="M35.115 14.6251L21.037 3.4311C20.43 2.9481 19.57 2.9481 18.963 3.4311L4.884 14.6261C4.089 15.2581 3.625 16.2191 3.625 17.2351V22.2941L18.962 10.0981C19.569 9.6151 20.429 9.6151 21.037 10.0981L36.373 22.2941V17.2351C36.373 16.2191 35.909 15.2581 35.114 14.6251H35.115Z" fill="#007FF2"/>
</g>
<defs>
<clipPath id="clip0_13_1434">
<rect width="40" height="40" fill="white"/>
</clipPath>
</defs>
</svg>
