<svg width="40" height="40" viewBox="0 0 40 40" fill="none" xmlns="http://www.w3.org/2000/svg">
<g clip-path="url(#clip0_13_1382)">
<path d="M3.56396 21.565V26.713C3.56396 29.514 5.16297 32.069 7.68297 33.294L9.77996 34.313C13.113 35.933 17.055 35.663 20.136 33.604L34.109 24.268C36.452 22.702 37.859 20.07 37.859 17.252V11.907L3.56396 21.565Z" fill="#DFE3E8"/>
<path d="M3.28897 22.628L11.899 26.655C13.535 27.42 15.447 27.306 16.98 26.35C23.173 21.335 29.889 17.23 37.028 13.856C39.389 12.385 39.004 10.185 36.644 8.43698L29.405 4.37297C27.484 3.48697 25.308 3.32197 23.279 3.91897C18.518 5.32097 9.65397 9.00597 2.34697 18.14C2.30197 18.191 2.25897 18.242 2.21797 18.293C1.07597 19.72 1.63397 21.854 3.28897 22.628Z" fill="#FA5F3C"/>
<path d="M21.6239 21.388C21.6239 19.459 20.5679 17.622 19.3729 16.107L12.6419 8.83301C11.9729 9.26401 11.2969 9.72601 10.6169 10.222L16.8079 16.689C18.2219 18.173 19.1039 20.109 19.1829 22.157C19.1869 22.267 19.1889 22.378 19.1889 22.489V24.617C19.5359 24.353 19.8849 24.093 20.2349 23.834C20.5999 23.549 20.8999 23.328 21.6239 22.808V21.388Z" fill="#FAA594"/>
<path d="M28.708 10.6289L22.703 4.09595C21.947 4.33195 21.107 4.62095 20.197 4.97395L26.142 11.2109C27.556 12.6949 28.438 14.6309 28.517 16.6789C28.521 16.7889 28.523 16.8999 28.523 17.0109V18.3569C29.328 17.8819 30.14 17.4179 30.958 16.9649V15.9089C30.958 13.9799 29.902 12.1429 28.707 10.6279L28.708 10.6289Z" fill="#FAA594"/>
<path d="M3.42188 16.853C4.38487 18.03 6.66787 21.093 7.52287 24.609L10.6009 26.049C9.82487 23.571 8.02287 18.729 4.92688 15.199C4.42088 15.727 3.91787 16.278 3.42188 16.853Z" fill="#FAA594"/>
</g>
<defs>
<clipPath id="clip0_13_1382">
<rect width="40" height="40" fill="white"/>
</clipPath>
</defs>
</svg>
