<svg width="40" height="40" viewBox="0 0 40 40" fill="none" xmlns="http://www.w3.org/2000/svg">
<g clip-path="url(#clip0_13_1441)">
<path d="M4.96101 18.8921C5.05301 20.5711 5.96501 22.1261 7.45701 23.4391C7.35201 23.0561 7.28201 22.6661 7.28201 22.2661C7.28201 20.1691 8.78801 18.2801 11.197 16.9331C11.56 16.5391 12.021 16.2291 12.575 16.0811C12.67 16.0561 12.766 16.0501 12.861 16.0351C13.122 14.6951 14.113 13.5521 15.515 13.1761C17.145 12.7391 18.798 13.4861 19.613 14.8781C19.743 14.8761 19.87 14.8671 20.001 14.8671C27.025 14.8671 32.72 18.1801 32.72 22.2671C32.72 22.6671 32.65 23.0571 32.545 23.4401C34.036 22.1271 34.949 20.5721 35.041 18.8931C35.046 18.7991 35.065 18.7071 35.065 18.6121C35.065 17.1341 34.43 15.7441 33.32 14.5231C30.794 11.7441 25.781 9.84814 20.001 9.84814C14.221 9.84814 9.20801 11.7441 6.68201 14.5231C5.57201 15.7441 4.93701 17.1351 4.93701 18.6121C4.93701 18.7071 4.95601 18.7981 4.96101 18.8921Z" fill="#3D3D3D"/>
<path d="M32.719 22.266C32.719 18.179 27.025 14.866 20 14.866C19.869 14.866 19.742 14.875 19.612 14.877C19.777 15.158 19.919 15.456 20.007 15.787C20.01 15.799 20.012 15.811 20.015 15.823C20.127 15.778 20.236 15.726 20.356 15.694C21.975 15.26 23.638 16.227 24.07 17.853C24.073 17.864 24.076 17.876 24.079 17.888C24.227 18.511 23.732 19.107 23.094 19.107H11.591C10.881 19.107 10.367 18.376 10.656 17.725C10.787 17.431 10.978 17.17 11.197 16.932C8.78798 18.278 7.28198 20.168 7.28198 22.265C7.28198 22.665 7.35198 23.055 7.45698 23.438C10.149 25.807 14.752 27.374 20.001 27.374C25.25 27.374 29.853 25.807 32.545 23.438C32.65 23.055 32.72 22.665 32.72 22.265L32.719 22.266ZM12.336 22.254C12.651 21.483 13.406 20.941 14.287 20.941C15.168 20.941 15.923 21.483 16.238 22.254C16.396 22.639 16.082 23.059 15.667 23.059H12.906C12.491 23.059 12.177 22.639 12.335 22.254H12.336ZM24.42 24.893H19.301C18.581 24.893 18.103 24.158 18.37 23.488C18.925 22.099 20.278 21.117 21.86 21.117C23.442 21.117 24.795 22.098 25.35 23.488C25.618 24.159 25.14 24.893 24.42 24.893ZM25.975 20.232C25.56 20.232 25.246 19.812 25.404 19.427C25.719 18.656 26.474 18.114 27.355 18.114C28.236 18.114 28.991 18.656 29.306 19.427C29.464 19.812 29.15 20.232 28.735 20.232H25.975Z" fill="#FFAD00"/>
<path d="M11.59 19.1081H23.093C23.731 19.1081 24.226 18.5121 24.078 17.8891C24.075 17.8771 24.072 17.8651 24.069 17.8541C23.637 16.2281 21.974 15.2611 20.355 15.6951C20.235 15.7271 20.127 15.7791 20.014 15.8241C20.011 15.8121 20.01 15.8001 20.006 15.7881C19.918 15.4571 19.775 15.1591 19.611 14.8781C18.796 13.4861 17.143 12.7391 15.513 13.1761C14.111 13.5521 13.12 14.6951 12.859 16.0351C12.763 16.0511 12.668 16.0561 12.573 16.0811C12.019 16.2301 11.558 16.5401 11.195 16.9331C10.976 17.1711 10.784 17.4311 10.654 17.7261C10.365 18.3771 10.879 19.1081 11.589 19.1081H11.59Z" fill="#037F56"/>
<path d="M29.3071 19.427C28.9921 18.656 28.2371 18.114 27.3561 18.114C26.4751 18.114 25.7201 18.656 25.4051 19.427C25.2471 19.812 25.5611 20.232 25.9761 20.232H28.7371C29.1521 20.232 29.4661 19.812 29.3081 19.427H29.3071Z" fill="#F77F00"/>
<path d="M16.239 22.2539C15.924 21.4829 15.169 20.9409 14.288 20.9409C13.407 20.9409 12.652 21.4829 12.337 22.2539C12.179 22.6389 12.493 23.0589 12.908 23.0589H15.669C16.084 23.0589 16.397 22.6389 16.239 22.2539Z" fill="#F77F00"/>
<path d="M38.5001 18.611C38.5001 16.353 36.6771 14.522 34.4291 14.522H33.3191C34.4291 15.743 35.0641 17.134 35.0641 18.611C35.0641 18.706 35.0451 18.798 35.0401 18.892C35.0551 18.853 35.0641 18.829 35.0641 18.829V22.637C37.0091 22.329 38.5001 20.651 38.5001 18.611Z" fill="#C50010"/>
<path d="M4.96098 18.892C4.95598 18.798 4.93698 18.706 4.93698 18.611C4.93698 17.133 5.57198 15.743 6.68198 14.522H5.57198C3.32398 14.522 1.50098 16.353 1.50098 18.611C1.50098 20.651 2.99198 22.328 4.93698 22.636V18.828C4.93698 18.828 4.94598 18.854 4.96098 18.892Z" fill="#C50010"/>
<path d="M25.351 23.4879C24.796 22.0989 23.443 21.1169 21.861 21.1169C20.279 21.1169 18.926 22.0979 18.371 23.4879C18.103 24.1589 18.582 24.8929 19.302 24.8929H24.421C25.141 24.8929 25.618 24.1579 25.351 23.4879Z" fill="#C50010"/>
<path d="M35.0391 18.8919C34.9471 20.5709 34.0351 22.1259 32.5431 23.4389C29.8511 25.8079 25.2481 27.3749 19.9991 27.3749C14.7501 27.3749 10.1471 25.8079 7.45506 23.4389C5.96406 22.1259 5.05106 20.5709 4.95906 18.8919C4.94406 18.8529 4.93506 18.8289 4.93506 18.8289V22.7069C4.93506 31.0629 11.6791 37.8379 19.9991 37.8379C28.3191 37.8379 35.0631 31.0639 35.0631 22.7069V18.8289C35.0631 18.8289 35.0541 18.8539 35.0391 18.8919Z" fill="#C50010"/>
<path d="M25.79 8.97008C24.85 9.14008 23.95 8.77008 23.37 8.09008C23.16 8.18008 22.94 8.25008 22.71 8.29008C21.04 8.58008 19.45 7.45008 19.16 5.77008C18.87 4.09008 19.99 2.50008 21.66 2.21008C23.01 1.98008 24.29 2.67008 24.89 3.82008H24.9C26.32 3.57008 27.67 4.53008 27.91 5.95008C28.16 7.37008 27.2 8.73008 25.79 8.97008Z" fill="#D5D5D5"/>
<path d="M14.259 8.91203C15.478 8.91203 16.466 7.92003 16.466 6.69503C16.466 5.47003 15.478 4.47803 14.259 4.47803C13.04 4.47803 12.052 5.47003 12.052 6.69503C12.052 7.92003 13.04 8.91203 14.259 8.91203Z" fill="#D5D5D5"/>
</g>
<defs>
<clipPath id="clip0_13_1441">
<rect width="40" height="40" fill="white"/>
</clipPath>
</defs>
</svg>
