<svg width="18" height="18" viewBox="0 0 18 18" fill="none" xmlns="http://www.w3.org/2000/svg">
<path d="M9 4.64062C8.47155 4.64062 7.95497 4.79733 7.51559 5.09092C7.0762 5.38451 6.73374 5.8018 6.53151 6.29002C6.32928 6.77824 6.27637 7.31546 6.37946 7.83376C6.48256 8.35205 6.73703 8.82813 7.1107 9.2018C7.48437 9.57547 7.96045 9.82994 8.47874 9.93303C8.99704 10.0361 9.53426 9.98322 10.0225 9.78099C10.5107 9.57876 10.928 9.2363 11.2216 8.79691C11.5152 8.35753 11.6719 7.84095 11.6719 7.3125C11.6719 6.60387 11.3904 5.92427 10.8893 5.4232C10.3882 4.92213 9.70863 4.64062 9 4.64062ZM9 9.14062C8.63843 9.14062 8.28498 9.03341 7.98435 8.83253C7.68371 8.63165 7.4494 8.34614 7.31103 8.01209C7.17267 7.67805 7.13646 7.31047 7.207 6.95585C7.27754 6.60123 7.45165 6.27549 7.70732 6.01982C7.96299 5.76415 8.28873 5.59004 8.64335 5.5195C8.99797 5.44896 9.36555 5.48517 9.69959 5.62353C10.0336 5.7619 10.3192 5.99621 10.52 6.29685C10.7209 6.59748 10.8281 6.95093 10.8281 7.3125C10.8281 7.79735 10.6355 8.26234 10.2927 8.60518C9.94984 8.94802 9.48485 9.14062 9 9.14062ZM9 1.26562C7.39684 1.26749 5.85987 1.90516 4.72627 3.03877C3.59266 4.17237 2.95499 5.70934 2.95312 7.3125C2.95312 9.48586 3.96141 11.7942 5.86898 13.988C6.72996 14.983 7.69897 15.8791 8.75812 16.6598C8.82902 16.7095 8.91347 16.7361 9 16.7361C9.08653 16.7361 9.17098 16.7095 9.24188 16.6598C10.301 15.8791 11.27 14.983 12.131 13.988C14.0386 11.7942 15.0469 9.48797 15.0469 7.3125C15.045 5.70934 14.4073 4.17237 13.2737 3.03877C12.1401 1.90516 10.6032 1.26749 9 1.26562ZM9 15.7859C7.94531 14.9716 3.79688 11.5045 3.79688 7.3125C3.79688 5.93255 4.34506 4.60911 5.32083 3.63334C6.29661 2.65756 7.62005 2.10938 9 2.10938C10.38 2.10938 11.7034 2.65756 12.6792 3.63334C13.6549 4.60911 14.2031 5.93255 14.2031 7.3125C14.2031 11.5045 10.0547 14.9716 9 15.7859Z" fill="black"/>
</svg>
