<svg width="75" height="75" viewBox="0 0 75 75" fill="none" xmlns="http://www.w3.org/2000/svg">
<g filter="url(#filter0_d_13_1176)">
<path d="M12 37.5C12 23.4 23.4 12 37.5 12C51.6 12 63 23.4 63 37.5C63 51.6 51.6 63 37.5 63C23.4 63 12 51.6 12 37.5ZM60 37.5C60 25.05 49.95 15 37.5 15C25.05 15 15 25.05 15 37.5C15 49.95 25.05 60 37.5 60C49.95 60 60 49.95 60 37.5Z" fill="#006D77"/>
<path d="M34.9501 49.95L47.4001 37.5L34.9501 25.05L37.0501 22.95L51.6001 37.5L37.0501 52.05L34.9501 49.95Z" fill="#006D77"/>
<path d="M49.5 36V39H24V36H49.5Z" fill="#006D77"/>
</g>
<defs>
<filter id="filter0_d_13_1176" x="-4" y="0" width="83" height="83" filterUnits="userSpaceOnUse" color-interpolation-filters="sRGB">
<feFlood flood-opacity="0" result="BackgroundImageFix"/>
<feColorMatrix in="SourceAlpha" type="matrix" values="0 0 0 0 0 0 0 0 0 0 0 0 0 0 0 0 0 0 127 0" result="hardAlpha"/>
<feOffset dy="4"/>
<feGaussianBlur stdDeviation="2"/>
<feComposite in2="hardAlpha" operator="out"/>
<feColorMatrix type="matrix" values="0 0 0 0 0 0 0 0 0 0 0 0 0 0 0 0 0 0 0.25 0"/>
<feBlend mode="normal" in2="BackgroundImageFix" result="effect1_dropShadow_13_1176"/>
<feBlend mode="normal" in="SourceGraphic" in2="effect1_dropShadow_13_1176" result="shape"/>
</filter>
</defs>
</svg>
