<svg width="40" height="40" viewBox="0 0 40 40" fill="none" xmlns="http://www.w3.org/2000/svg">
<g clip-path="url(#clip0_13_1404)">
<path d="M20 37.895C29.8831 37.895 37.895 29.8831 37.895 20C37.895 10.1168 29.8831 2.10498 20 2.10498C10.1168 2.10498 2.10498 10.1168 2.10498 20C2.10498 29.8831 10.1168 37.895 20 37.895Z" fill="#D0D5DA"/>
<path d="M34.9331 20.2259C34.9331 19.4029 34.6941 18.6349 34.2831 17.9889C33.7611 17.1689 33.4761 16.1989 33.5781 15.2319C33.6661 14.3919 33.5011 13.5179 33.0461 12.7289C32.6351 12.0169 32.0461 11.4719 31.3681 11.1179C30.4371 10.6319 29.7571 9.81389 29.2791 8.87889C28.9281 8.19189 28.3831 7.59589 27.6641 7.18089C26.9521 6.76989 26.1701 6.59289 25.4051 6.62489C24.3561 6.66889 23.3581 6.30089 22.4761 5.72989C21.8291 5.31089 21.0581 5.06689 20.2281 5.06689C19.4051 5.06689 18.6371 5.30589 17.9911 5.71689C17.1711 6.23889 16.2011 6.52389 15.2341 6.42189C14.3941 6.33389 13.5201 6.49889 12.7321 6.95389C12.0201 7.36489 11.4761 7.95389 11.1221 8.63189C10.6361 9.56289 9.81809 10.2429 8.88209 10.7209C8.19509 11.0719 7.59809 11.6169 7.18309 12.3359C6.77209 13.0479 6.59509 13.8299 6.62709 14.5949C6.67109 15.6439 6.30309 16.6429 5.73209 17.5239C5.31309 18.1719 5.06909 18.9419 5.06909 19.7719C5.06909 20.5949 5.30809 21.3629 5.71909 22.0089C6.24109 22.8289 6.52609 23.7979 6.42409 24.7659C6.33609 25.6059 6.50109 26.4799 6.95609 27.2689C7.36709 27.9809 7.95609 28.5249 8.63409 28.8789C9.56509 29.3649 10.2451 30.1829 10.7241 31.1189C11.0751 31.8059 11.6201 32.4029 12.3391 32.8179C13.0511 33.2289 13.8331 33.4059 14.5981 33.3739C15.6471 33.3299 16.6461 33.6979 17.5271 34.2689C18.1751 34.6879 18.9451 34.9319 19.7751 34.9319C20.5991 34.9319 21.3661 34.6929 22.0131 34.2819C22.8331 33.7599 23.8021 33.4749 24.7691 33.5769C25.6091 33.6649 26.4831 33.4999 27.2721 33.0449C27.9841 32.6339 28.5281 32.0449 28.8821 31.3669C29.3681 30.4359 30.1861 29.7559 31.1221 29.2769C31.8091 28.9259 32.4051 28.3809 32.8201 27.6619C33.2311 26.9499 33.4081 26.1679 33.3761 25.4029C33.3321 24.3539 33.7001 23.3549 34.2711 22.4739C34.6901 21.8259 34.9331 21.0559 34.9331 20.2259Z" fill="#03905A"/>
<path d="M17.3389 22.795C18.7469 24.344 18.6319 26.741 17.0829 28.149C15.5339 29.557 13.1369 29.442 11.7289 27.893C10.3209 26.344 9.33891 22.74 10.8879 21.333C12.4369 19.925 15.9309 21.247 17.3379 22.796L17.3389 22.795Z" fill="white"/>
<path d="M14.9028 27.894C16.0869 27.894 17.0468 26.9341 17.0468 25.75C17.0468 24.5659 16.0869 23.606 14.9028 23.606C13.7187 23.606 12.7588 24.5659 12.7588 25.75C12.7588 26.9341 13.7187 27.894 14.9028 27.894Z" fill="#FFC261"/>
<path d="M17.8569 18.9719C19.2469 21.6149 22.5149 22.6309 25.1579 21.2409C27.8009 19.8509 28.8169 16.5829 27.4269 13.9399L17.8569 18.9719Z" fill="#D14141"/>
<path d="M26.026 14.677C27.009 16.546 26.29 18.857 24.422 19.84C22.554 20.823 20.242 20.104 19.259 18.236L26.026 14.678V14.677Z" fill="#F25F5F"/>
<path d="M27.4749 29.4809C29.1449 28.1779 29.5579 25.9149 28.3959 24.4259C27.4819 23.2539 26.8549 24.1829 25.8149 25.2669C25.7539 24.9579 25.6199 24.6469 25.4029 24.3679C24.7769 23.5649 24.2969 24.0519 23.6389 24.5649C22.9809 25.0779 22.3919 25.4249 23.0179 26.2279C23.2359 26.5069 23.5049 26.7129 23.7899 26.8469C22.4859 27.5909 21.4329 27.9739 22.3469 29.1459C23.5079 30.6349 25.8039 30.7849 27.4739 29.4819L27.4749 29.4809Z" fill="#E5E9EE"/>
<path d="M16.3005 13.0544L14.7307 11.9715C14.2925 11.6692 13.6922 11.7793 13.3898 12.2176L12.3069 13.7873C12.0046 14.2255 12.1148 14.8258 12.553 15.1282L14.1227 16.2111C14.561 16.5134 15.1613 16.4032 15.4636 15.965L16.5465 14.3953C16.8489 13.9571 16.7387 13.3567 16.3005 13.0544Z" fill="#FFD361"/>
<path d="M25.3066 11.6152L25.0992 10.3866C25.0413 10.0435 24.7163 9.81233 24.3732 9.87024L23.1446 10.0776C22.8015 10.1355 22.5703 10.4606 22.6282 10.8037L22.8356 12.0323C22.8935 12.3754 23.2186 12.6066 23.5617 12.5487L24.7903 12.3413C25.1334 12.2834 25.3645 11.9583 25.3066 11.6152Z" fill="#FFD361"/>
</g>
<defs>
<clipPath id="clip0_13_1404">
<rect width="40" height="40" fill="white"/>
</clipPath>
</defs>
</svg>
