<svg width="21" height="25" viewBox="0 0 21 25" fill="none" xmlns="http://www.w3.org/2000/svg">
<path d="M13.0105 14.7429C13.5686 14.3326 14.3536 14.4524 14.7639 15.0105L19.9586 22.0768C20.3689 22.6349 20.2491 23.42 19.691 23.8302C19.1329 24.2405 18.3478 24.1207 17.9376 23.5626L12.7428 16.4963C12.3325 15.9382 12.4524 15.1532 13.0105 14.7429Z" fill="#A5A5A5"/>
<path d="M16 9C16 5.13401 12.866 2 9 2C5.13401 2 2 5.13401 2 9C2 12.866 5.13401 16 9 16V18C4.02944 18 0 13.9706 0 9C0 4.02944 4.02944 0 9 0C13.9706 0 18 4.02944 18 9C18 13.9706 13.9706 18 9 18V16C12.866 16 16 12.866 16 9Z" fill="#A5A5A5"/>
</svg>
