<svg width="30" height="30" viewBox="0 0 30 30" fill="none" xmlns="http://www.w3.org/2000/svg">
<path d="M8.65113 15.6249L15.4499 22.4236C15.5715 22.5453 15.6353 22.6886 15.6411 22.8536C15.6461 23.0186 15.5795 23.1699 15.4411 23.3074C15.3045 23.4407 15.1574 23.5086 14.9999 23.5111C14.8432 23.5128 14.6957 23.4449 14.5574 23.3074L6.95738 15.7074C6.84822 15.5974 6.77155 15.4857 6.72738 15.3724C6.68322 15.2591 6.66113 15.1349 6.66113 14.9999C6.66113 14.8649 6.68322 14.7407 6.72738 14.6274C6.77155 14.5141 6.84822 14.4028 6.95738 14.2936L14.5574 6.69239C14.674 6.57572 14.8161 6.51322 14.9836 6.50489C15.152 6.49655 15.3049 6.55905 15.4424 6.69239C15.5799 6.82989 15.6486 6.97822 15.6486 7.13739C15.6486 7.29739 15.5799 7.44614 15.4424 7.58364L8.64988 14.3749H23.1249C23.3032 14.3749 23.452 14.4345 23.5711 14.5536C23.6903 14.6728 23.7499 14.8216 23.7499 14.9999C23.7499 15.1782 23.6903 15.327 23.5711 15.4461C23.452 15.5653 23.3032 15.6249 23.1249 15.6249H8.65113Z" fill="black"/>
</svg>
