<svg width="40" height="40" viewBox="0 0 40 40" fill="none" xmlns="http://www.w3.org/2000/svg">
<g clip-path="url(#clip0_13_1419)">
<path d="M32.2129 8.9566C32.4839 8.68557 32.4841 8.24631 32.2133 7.97548C31.9424 7.70466 31.5032 7.70482 31.2322 7.97584L4.2815 34.9265C4.01048 35.1975 4.01032 35.6368 4.28114 35.9076C4.55197 36.1784 4.99123 36.1783 5.26226 35.9073L32.2129 8.9566Z" fill="#E3B159"/>
<path d="M27.4969 27.8123L12.188 12.5034C11.4312 11.7466 10.2041 11.7466 9.44725 12.5034L7.53524 14.4154C6.7784 15.1723 6.7784 16.3994 7.53524 17.1562L22.8441 32.4651C23.6009 33.2219 24.828 33.2219 25.5848 32.4651L27.4969 30.553C28.2537 29.7962 28.2537 28.5691 27.4969 27.8123Z" fill="#EADDCD"/>
<path d="M32.4646 22.8443L17.1558 7.53541C16.3989 6.77858 15.1719 6.77858 14.415 7.53541L12.503 9.44743C11.7462 10.2043 11.7462 11.4313 12.503 12.1882L27.8119 27.497C28.5687 28.2539 29.7958 28.2539 30.5526 27.497L32.4646 25.585C33.2215 24.8282 33.2215 23.6011 32.4646 22.8443Z" fill="#EADDCD"/>
<path d="M37.4317 17.877L22.1228 2.56813C21.366 1.81129 20.1389 1.81129 19.3821 2.56813L17.4701 4.48014C16.7132 5.23698 16.7132 6.46405 17.4701 7.22089L32.7789 22.5298C33.5358 23.2866 34.7628 23.2866 35.5197 22.5298L37.4317 20.6177C38.1885 19.8609 38.1885 18.6338 37.4317 17.877Z" fill="#EADDCD"/>
<path d="M22.5291 32.7793L7.22023 17.4705C6.46339 16.7136 5.23632 16.7136 4.47948 17.4705L2.56746 19.3825C1.81063 20.1393 1.81063 21.3664 2.56746 22.1232L17.8763 37.4321C18.6332 38.1889 19.8602 38.1889 20.6171 37.4321L22.5291 35.5201C23.2859 34.7632 23.2859 33.5362 22.5291 32.7793Z" fill="#EADDCD"/>
<path d="M9.44703 12.5031L7.53504 14.4151C6.77804 15.1721 6.77804 16.3991 7.53504 17.1561L13.834 23.4551C16.48 24.8761 19.814 24.5381 22.135 22.4501L12.188 12.5031C11.431 11.7461 10.204 11.7461 9.44703 12.5031Z" fill="#C35231"/>
<path d="M14.4148 7.53504L12.5028 9.44703C11.7458 10.204 11.7458 11.431 12.5028 12.187L22.4668 22.151C24.4008 20.244 27.0488 19.503 29.5428 19.922L17.1558 7.53504C16.3988 6.77804 15.1718 6.77804 14.4158 7.53504H14.4148Z" fill="#C35231"/>
<path d="M37.9649 19.616C38.0829 19.005 37.9058 18.349 37.4328 17.876L22.1228 2.56799C21.3658 1.81099 20.1389 1.81099 19.3819 2.56799L17.4698 4.47999C16.7128 5.23699 16.7128 6.46399 17.4698 7.22099L30.3649 20.116C30.4899 20.151 30.6168 20.171 30.7408 20.212C30.7408 20.212 34.8699 21.141 37.9639 19.618L37.9649 19.616Z" fill="#C35231"/>
<path d="M4.47999 17.4711L2.56799 19.3831C1.81099 20.1401 1.81099 21.3671 2.56799 22.1231L3.62199 23.1771C3.93799 22.6671 4.34599 22.1971 4.84599 21.7931C6.68699 20.3031 9.32599 20.2721 11.274 21.5241L7.22099 17.4711C6.46399 16.7141 5.23599 16.7141 4.47999 17.4711Z" fill="#C35231"/>
</g>
<defs>
<clipPath id="clip0_13_1419">
<rect width="40" height="40" fill="white"/>
</clipPath>
</defs>
</svg>
