<svg width="30" height="28" viewBox="0 0 30 28" fill="none" xmlns="http://www.w3.org/2000/svg">
<path d="M13.3838 1.93164C13.9816 0.494494 16.0184 0.49449 16.6162 1.93164L19.4258 8.6875C19.4619 8.77384 19.5434 8.83334 19.6367 8.84082L26.9287 9.4248C28.4803 9.54919 29.1097 11.4853 27.9277 12.498L22.3711 17.2578C22.3 17.3188 22.2693 17.4147 22.291 17.5059L23.9883 24.623C24.349 26.1369 22.7023 27.3336 21.374 26.5225L15.1299 22.708C15.0501 22.6595 14.9499 22.6595 14.8701 22.708L8.62598 26.5225C7.29771 27.3336 5.65096 26.1369 6.01172 24.623L7.70898 17.5059C7.7307 17.4147 7.70005 17.3188 7.62891 17.2578L2.07227 12.498C0.890302 11.4853 1.51971 9.54919 3.07129 9.4248L10.3633 8.84082C10.4566 8.83334 10.5381 8.77384 10.5742 8.6875L13.3838 1.93164Z" fill="white" stroke="black" stroke-width="1.5"/>
</svg>
