<svg width="28" height="28" viewBox="0 0 28 28" fill="none" xmlns="http://www.w3.org/2000/svg">
<path d="M12.6152 2.02832C13.1276 0.796383 14.8724 0.796381 15.3848 2.02832L18.1943 8.7832C18.2663 8.95628 18.4294 9.07482 18.6162 9.08984L25.9092 9.67383C27.239 9.78044 27.7786 11.4405 26.7656 12.3086L21.209 17.0684C21.0666 17.1903 21.0043 17.3821 21.0479 17.5645L22.7451 24.6807C23.0546 25.9785 21.6425 27.0041 20.5039 26.3086L14.2607 22.4951C14.1007 22.3974 13.8993 22.3974 13.7393 22.4951L7.49609 26.3086C6.35746 27.0041 4.94535 25.9785 5.25488 24.6807L6.95215 17.5645C6.99565 17.3821 6.93341 17.1903 6.79102 17.0684L1.23438 12.3086C0.221433 11.4405 0.760952 9.78044 2.09082 9.67383L9.38379 9.08984C9.57064 9.07482 9.73368 8.95628 9.80566 8.7832L12.6152 2.02832Z" fill="#70B9BE" stroke="#70B9BE"/>
</svg>
