<svg width="23" height="43" viewBox="0 0 23 43" fill="none" xmlns="http://www.w3.org/2000/svg">
<path d="M0 23.375V9.25089C0 8.8349 0.0941904 8.44112 0.282571 8.06955C0.470952 7.69798 0.730524 7.39194 1.06129 7.15145L9.90807 0.524863C10.3714 0.174955 10.9004 0 11.4951 0C12.0898 0 12.6221 0.174955 13.0919 0.524863L21.9387 7.14982C22.2706 7.39032 22.5301 7.69689 22.7174 8.06955C22.9058 8.44112 23 8.8349 23 9.25089V23.375C23 23.8105 22.8363 24.1902 22.5088 24.5141C22.1813 24.838 21.7974 25 21.3571 25H15.7977C15.421 25 15.1055 24.8743 14.8514 24.623C14.5973 24.3706 14.4703 24.0586 14.4703 23.687V15.9376C14.4703 15.566 14.3432 15.2546 14.0891 15.0032C13.834 14.7508 13.5185 14.6246 13.1429 14.6246H9.85714C9.48148 14.6246 9.1666 14.7508 8.9125 15.0032C8.65731 15.2546 8.52971 15.566 8.52971 15.9376V23.6887C8.52971 24.0602 8.40267 24.3717 8.14857 24.623C7.89448 24.8743 7.5796 25 7.20393 25H1.64286C1.20257 25 0.81869 24.838 0.491214 24.5141C0.163738 24.1902 0 23.8105 0 23.375Z" fill="black"/>
<path d="M9 39.48H15.17V42.06H9V39.48ZM14.36 40.11H9.81V41.42H14.36V40.11ZM8.43 33.88H15.7V34.53H8.43V33.88ZM12.08 34.89C13.02 34.89 13.74 35 14.24 35.22C14.7467 35.4333 15 35.75 15 36.17C15 36.59 14.7467 36.91 14.24 37.13C13.74 37.3433 13.02 37.45 12.08 37.45C11.1533 37.45 10.4333 37.3433 9.92 37.13C9.41333 36.91 9.16 36.59 9.16 36.17C9.16 35.75 9.41333 35.4333 9.92 35.22C10.4333 35 11.1533 34.89 12.08 34.89ZM12.08 35.47C11.4333 35.47 10.93 35.53 10.57 35.65C10.2167 35.77 10.04 35.9433 10.04 36.17C10.04 36.3967 10.2167 36.57 10.57 36.69C10.93 36.81 11.4333 36.87 12.08 36.87C12.7333 36.87 13.2367 36.81 13.59 36.69C13.9433 36.57 14.12 36.3967 14.12 36.17C14.12 35.9433 13.9433 35.77 13.59 35.65C13.2367 35.53 12.7333 35.47 12.08 35.47ZM11.67 33H12.5V34.3H11.67V33ZM8 38.13H16.17V38.79H8V38.13ZM11.67 37.24H12.5V38.5H11.67V37.24Z" fill="black"/>
</svg>
