<svg width="27" height="43" viewBox="0 0 27 43" fill="none" xmlns="http://www.w3.org/2000/svg">
<path d="M3 21.125H2.25H3ZM8.75 15.375V14.625V15.375ZM20.25 15.375V14.625V15.375ZM3 21.125H3.75C3.75 19.7989 4.27678 18.5271 5.21447 17.5895L4.68414 17.0591L4.15381 16.5288C2.93482 17.7478 2.25 19.4011 2.25 21.125H3ZM4.68414 17.0591L5.21447 17.5895C6.15215 16.6518 7.42392 16.125 8.75 16.125V15.375V14.625C7.02609 14.625 5.37279 15.3098 4.15381 16.5288L4.68414 17.0591ZM8.75 15.375V16.125H20.25V15.375V14.625H8.75V15.375ZM20.25 15.375V16.125C21.5761 16.125 22.8478 16.6518 23.7855 17.5895L24.3159 17.0591L24.8462 16.5288C23.6272 15.3098 21.9739 14.625 20.25 14.625V15.375ZM24.3159 17.0591L23.7855 17.5895C24.7232 18.5271 25.25 19.7989 25.25 21.125H26H26.75C26.75 19.4011 26.0652 17.7478 24.8462 16.5288L24.3159 17.0591ZM26 21.125H25.25C25.25 21.6886 25.0261 22.2291 24.6276 22.6276L25.1579 23.1579L25.6883 23.6883C26.3681 23.0084 26.75 22.0864 26.75 21.125H26ZM25.1579 23.1579L24.6276 22.6276C24.2291 23.0261 23.6886 23.25 23.125 23.25V24V24.75C24.0864 24.75 25.0084 24.3681 25.6883 23.6883L25.1579 23.1579ZM23.125 24V23.25H5.875V24V24.75H23.125V24ZM5.875 24V23.25C5.31141 23.25 4.77091 23.0261 4.3724 22.6276L3.84207 23.1579L3.31174 23.6883C3.99156 24.3681 4.91359 24.75 5.875 24.75V24ZM3.84207 23.1579L4.3724 22.6276C3.97388 22.2291 3.75 21.6886 3.75 21.125H3H2.25C2.25 22.0864 2.63192 23.0084 3.31174 23.6883L3.84207 23.1579ZM18.8125 5.3125H18.0625C18.0625 7.28001 16.4675 8.875 14.5 8.875V9.625V10.375C17.2959 10.375 19.5625 8.10844 19.5625 5.3125H18.8125ZM14.5 9.625V8.875C12.5325 8.875 10.9375 7.28001 10.9375 5.3125H10.1875H9.4375C9.4375 8.10844 11.7041 10.375 14.5 10.375V9.625ZM10.1875 5.3125H10.9375C10.9375 3.34499 12.5325 1.75 14.5 1.75V1V0.25C11.7041 0.25 9.4375 2.51656 9.4375 5.3125H10.1875ZM14.5 1V1.75C16.4675 1.75 18.0625 3.34499 18.0625 5.3125H18.8125H19.5625C19.5625 2.51656 17.2959 0.25 14.5 0.25V1Z" fill="black"/>
<path d="M25.6895 33.73H26.5195V38.42H25.6895V33.73ZM20.6295 38.86H26.5195V41.03H21.4695V42.39H20.6495V40.42H25.6995V39.52H20.6295V38.86ZM20.6495 42.01H26.8495V42.68H20.6495V42.01ZM19.4995 34.35H24.3595V35H19.4995V34.35ZM19.3495 38.11L19.2495 37.43C19.7895 37.4233 20.3762 37.4133 21.0095 37.4C21.6428 37.3866 22.2828 37.3633 22.9295 37.33C23.5828 37.29 24.2028 37.2366 24.7895 37.17L24.8295 37.77C24.2362 37.8633 23.6162 37.9333 22.9695 37.98C22.3228 38.0266 21.6895 38.06 21.0695 38.08C20.4562 38.1 19.8828 38.11 19.3495 38.11ZM20.3895 34.65H21.1895V37.72H20.3895V34.65ZM22.6595 34.65H23.4695V37.72H22.6595V34.65Z" fill="black"/>
<path d="M9.90039 40.9699H18.1004V41.6599H9.90039V40.9699ZM13.5704 39.0399H14.3904V41.2599H13.5704V39.0399ZM10.9004 34.3999H17.0804V37.1399H11.7404V38.9499H10.9204V36.4799H16.2604V35.0799H10.9004V34.3999ZM10.9204 38.5999H17.2904V39.2799H10.9204V38.5999Z" fill="black"/>
<path d="M0.701172 40.9199H8.90117V41.6199H0.701172V40.9199ZM1.42117 34.6399H8.13117V35.3199H1.42117V34.6399ZM1.44117 38.4499H8.11117V39.1299H1.44117V38.4499ZM2.82117 35.2599H3.65117V38.5299H2.82117V35.2599ZM5.90117 35.2599H6.72117V38.5299H5.90117V35.2599Z" fill="black"/>
</svg>
