<svg width="27" height="42" viewBox="0 0 27 42" fill="none" xmlns="http://www.w3.org/2000/svg">
<path d="M25.6895 32.73H26.5195V37.42H25.6895V32.73ZM20.6295 37.86H26.5195V40.03H21.4695V41.39H20.6495V39.42H25.6995V38.52H20.6295V37.86ZM20.6495 41.01H26.8495V41.68H20.6495V41.01ZM19.4995 33.35H24.3595V34H19.4995V33.35ZM19.3495 37.11L19.2495 36.43C19.7895 36.4233 20.3762 36.4133 21.0095 36.4C21.6428 36.3866 22.2828 36.3633 22.9295 36.33C23.5828 36.29 24.2028 36.2366 24.7895 36.17L24.8295 36.77C24.2362 36.8633 23.6162 36.9333 22.9695 36.98C22.3228 37.0266 21.6895 37.06 21.0695 37.08C20.4562 37.1 19.8828 37.11 19.3495 37.11ZM20.3895 33.65H21.1895V36.72H20.3895V33.65ZM22.6595 33.65H23.4695V36.72H22.6595V33.65Z" fill="black"/>
<path d="M9.90039 39.9699H18.1004V40.6599H9.90039V39.9699ZM13.5704 38.0399H14.3904V40.2599H13.5704V38.0399ZM10.9004 33.3999H17.0804V36.1399H11.7404V37.9499H10.9204V35.4799H16.2604V34.0799H10.9004V33.3999ZM10.9204 37.5999H17.2904V38.2799H10.9204V37.5999Z" fill="black"/>
<path d="M0.701172 39.9201H8.90117V40.6201H0.701172V39.9201ZM1.42117 33.6401H8.13117V34.3201H1.42117V33.6401ZM1.44117 37.4501H8.11117V38.1301H1.44117V37.4501ZM2.82117 34.2601H3.65117V37.5301H2.82117V34.2601ZM5.90117 34.2601H6.72117V37.5301H5.90117V34.2601Z" fill="black"/>
<path fill-rule="evenodd" clip-rule="evenodd" d="M9.38889 5.11111C9.38889 3.75556 9.92738 2.45553 10.8859 1.49701C11.8444 0.53849 13.1444 0 14.5 0C15.8556 0 17.1556 0.53849 18.1141 1.49701C19.0726 2.45553 19.6111 3.75556 19.6111 5.11111C19.6111 6.46666 19.0726 7.76669 18.1141 8.72521C17.1556 9.68373 15.8556 10.2222 14.5 10.2222C13.1444 10.2222 11.8444 9.68373 10.8859 8.72521C9.92738 7.76669 9.38889 6.46666 9.38889 5.11111ZM9.38889 12.7778C7.69445 12.7778 6.06941 13.4509 4.87126 14.649C3.67311 15.8472 3 17.4722 3 19.1667C3 20.1833 3.40387 21.1584 4.12276 21.8772C4.84165 22.5961 5.81667 23 6.83333 23H22.1667C23.1833 23 24.1584 22.5961 24.8772 21.8772C25.5961 21.1584 26 20.1833 26 19.1667C26 17.4722 25.3269 15.8472 24.1287 14.649C22.9306 13.4509 21.3055 12.7778 19.6111 12.7778H9.38889Z" fill="black"/>
</svg>
