<svg width="24" height="42" viewBox="0 0 24 42" fill="none" xmlns="http://www.w3.org/2000/svg">
<path d="M7.56088 32.58H8.43088C8.43088 33.3333 8.26088 34.0167 7.92088 34.63C7.58088 35.2367 7.09755 35.7567 6.47088 36.19C5.85088 36.6233 5.10755 36.9667 4.24088 37.22L3.90088 36.57C4.66088 36.35 5.31421 36.0633 5.86088 35.71C6.40755 35.3567 6.82755 34.9467 7.12088 34.48C7.41421 34.0067 7.56088 33.49 7.56088 32.93V32.58ZM4.36088 32.58H8.12088V33.25H4.36088V32.58ZM10.4109 32H11.2409V37.15H10.4109V32ZM8.45088 34.32H10.5609V35.01H8.45088V34.32ZM5.41088 37.54H11.2409V40.91H5.41088V37.54ZM10.4209 38.2H6.22088V40.24H10.4209V38.2Z" fill="black"/>
<path d="M14.8901 32.54H15.5501V33.74C15.5501 34.1933 15.4668 34.6433 15.3001 35.09C15.1401 35.5367 14.9034 35.94 14.5901 36.3C14.2768 36.66 13.8968 36.94 13.4501 37.14L13.0001 36.49C13.3934 36.31 13.7301 36.07 14.0101 35.77C14.2968 35.47 14.5134 35.1433 14.6601 34.79C14.8134 34.4367 14.8901 34.0867 14.8901 33.74V32.54ZM15.0301 32.54H15.6901V33.74C15.6901 34.08 15.7601 34.4167 15.9001 34.75C16.0468 35.0767 16.2568 35.3733 16.5301 35.64C16.8034 35.9067 17.1301 36.1167 17.5101 36.27L17.0701 36.91C16.6368 36.73 16.2668 36.4767 15.9601 36.15C15.6534 35.8233 15.4201 35.4533 15.2601 35.04C15.1068 34.6267 15.0301 34.1933 15.0301 33.74V32.54ZM19.8301 32H20.6201V37.46H19.8301V32ZM18.3701 34.35H20.0701V35.04H18.3701V34.35ZM17.8901 32.16H18.6701V37.41H17.8901V32.16ZM14.5601 37.96H20.6201V41.04H19.8001V38.64H14.5601V37.96Z" fill="black"/>
<path d="M9.579 6.30869e-07C8.07976 0.000801793 6.60162 0.353238 5.26339 1.02898C3.92515 1.70473 2.76414 2.68493 1.87367 3.89081C0.9832 5.09669 0.38811 6.49462 0.13623 7.97223C-0.115651 9.44984 -0.017297 10.9659 0.423386 12.3986C0.86407 13.8313 1.63479 15.1407 2.6736 16.2214C3.71242 17.3022 4.99035 18.1243 6.40468 18.6215C7.81902 19.1188 9.33031 19.2774 10.8171 19.0845C12.3039 18.8917 13.7247 18.3528 14.9653 17.5112L20.8883 23.4282C21.0528 23.6047 21.2512 23.7463 21.4716 23.8445C21.692 23.9427 21.93 23.9955 22.1713 23.9997C22.4126 24.004 22.6522 23.9596 22.876 23.8692C23.0998 23.7789 23.303 23.6444 23.4737 23.4738C23.6443 23.3032 23.7788 23.0999 23.8692 22.8762C23.9596 22.6525 24.004 22.4129 23.9997 22.1717C23.9955 21.9304 23.9426 21.6925 23.8444 21.4721C23.7462 21.2518 23.6046 21.0534 23.428 20.8889L17.5099 14.9672C18.489 13.5265 19.0568 11.8462 19.1522 10.107C19.2476 8.36783 18.8671 6.63553 18.0515 5.09637C17.236 3.55722 16.0162 2.26943 14.5234 1.37147C13.0306 0.473521 11.3212 -0.000631318 9.579 6.30869e-07ZM3.58892 9.58207C3.58892 7.99375 4.22002 6.47047 5.34337 5.34736C6.46673 4.22424 7.99033 3.59328 9.579 3.59328C11.1677 3.59328 12.6913 4.22424 13.8146 5.34736C14.938 6.47047 15.5691 7.99375 15.5691 9.58207C15.5691 11.1704 14.938 12.6937 13.8146 13.8168C12.6913 14.9399 11.1677 15.5709 9.579 15.5709C7.99033 15.5709 6.46673 14.9399 5.34337 13.8168C4.22002 12.6937 3.58892 11.1704 3.58892 9.58207Z" fill="black"/>
</svg>
