<svg width="24" height="43" viewBox="0 0 24 43" fill="none" xmlns="http://www.w3.org/2000/svg">
<path fill-rule="evenodd" clip-rule="evenodd" d="M17.9885 16.7914L24 22.7683L22.7609 24L16.7362 18.0115C14.7018 19.679 12.0981 20.5011 9.46856 20.3063C6.839 20.1116 4.3867 18.9149 2.62341 16.9661C0.860127 15.0174 -0.0779043 12.467 0.00507059 9.84729C0.0880455 7.22758 1.18562 4.74093 3.06874 2.90626C4.95185 1.07158 7.47503 0.030644 10.1117 0.000665853C12.7484 -0.0293123 15.2949 0.953987 17.2197 2.74536C19.1445 4.53674 20.299 6.99779 20.4423 9.61492C20.5855 12.2321 19.7064 14.8031 17.9885 16.7914ZM18.7045 10.1668C18.7045 7.93251 17.8115 5.78976 16.2221 4.20991C14.6327 2.63005 12.477 1.74249 10.2293 1.74249C7.98149 1.74249 5.82579 2.63005 4.23638 4.20991C2.64698 5.78976 1.75406 7.93251 1.75406 10.1668C1.75406 12.401 2.64698 14.5438 4.23638 16.1236C5.82579 17.7035 7.98149 18.591 10.2293 18.591C12.477 18.591 14.6327 17.7035 16.2221 16.1236C17.8115 14.5438 18.7045 12.401 18.7045 10.1668Z" fill="black"/>
<path d="M7.56088 33.58H8.43088C8.43088 34.3333 8.26088 35.0167 7.92088 35.63C7.58088 36.2367 7.09755 36.7567 6.47088 37.19C5.85088 37.6233 5.10755 37.9667 4.24088 38.22L3.90088 37.57C4.66088 37.35 5.31421 37.0633 5.86088 36.71C6.40755 36.3567 6.82755 35.9467 7.12088 35.48C7.41421 35.0067 7.56088 34.49 7.56088 33.93V33.58ZM4.36088 33.58H8.12088V34.25H4.36088V33.58ZM10.4109 33H11.2409V38.15H10.4109V33ZM8.45088 35.32H10.5609V36.01H8.45088V35.32ZM5.41088 38.54H11.2409V41.91H5.41088V38.54ZM10.4209 39.2H6.22088V41.24H10.4209V39.2Z" fill="black"/>
<path d="M14.8901 33.54H15.5501V34.74C15.5501 35.1933 15.4668 35.6433 15.3001 36.09C15.1401 36.5367 14.9034 36.94 14.5901 37.3C14.2768 37.66 13.8968 37.94 13.4501 38.14L13.0001 37.49C13.3934 37.31 13.7301 37.07 14.0101 36.77C14.2968 36.47 14.5134 36.1433 14.6601 35.79C14.8134 35.4367 14.8901 35.0867 14.8901 34.74V33.54ZM15.0301 33.54H15.6901V34.74C15.6901 35.08 15.7601 35.4167 15.9001 35.75C16.0468 36.0767 16.2568 36.3733 16.5301 36.64C16.8034 36.9067 17.1301 37.1167 17.5101 37.27L17.0701 37.91C16.6368 37.73 16.2668 37.4767 15.9601 37.15C15.6534 36.8233 15.4201 36.4533 15.2601 36.04C15.1068 35.6267 15.0301 35.1933 15.0301 34.74V33.54ZM19.8301 33H20.6201V38.46H19.8301V33ZM18.3701 35.35H20.0701V36.04H18.3701V35.35ZM17.8901 33.16H18.6701V38.41H17.8901V33.16ZM14.5601 38.96H20.6201V42.04H19.8001V39.64H14.5601V38.96Z" fill="black"/>
</svg>
