<svg width="36" height="43" viewBox="0 0 36 43" fill="none" xmlns="http://www.w3.org/2000/svg">
<path d="M0 36.89H8.17V37.56H0V36.89ZM0.99 38.38H7.12V40.44H1.82V41.54H1.01V39.83H6.31V39.02H0.99V38.38ZM1.01 41.34H7.39V41.99H1.01V41.34ZM3.61 33.66H4.33V33.95C4.33 34.23 4.26667 34.49 4.14 34.73C4.02 34.97 3.84333 35.1867 3.61 35.38C3.38333 35.5733 3.11667 35.7433 2.81 35.89C2.51 36.03 2.18 36.1467 1.82 36.24C1.46667 36.3333 1.09667 36.4 0.71 36.44L0.44 35.8C0.773333 35.7733 1.09333 35.7233 1.4 35.65C1.71333 35.5767 2.00333 35.4833 2.27 35.37C2.53667 35.2567 2.77 35.1267 2.97 34.98C3.17 34.8333 3.32667 34.6733 3.44 34.5C3.55333 34.3267 3.61 34.1433 3.61 33.95V33.66ZM3.84 33.66H4.56V33.95C4.56 34.1433 4.61667 34.3267 4.73 34.5C4.84333 34.6733 5 34.8333 5.2 34.98C5.4 35.1267 5.63333 35.2567 5.9 35.37C6.16667 35.4833 6.45333 35.5767 6.76 35.65C7.07333 35.7233 7.4 35.7733 7.74 35.8L7.47 36.44C7.08333 36.4 6.71 36.3333 6.35 36.24C5.99667 36.1467 5.66667 36.03 5.36 35.89C5.06 35.7433 4.79333 35.5733 4.56 35.38C4.33333 35.1867 4.15667 34.97 4.03 34.73C3.90333 34.49 3.84 34.23 3.84 33.95V33.66ZM0.75 33.39H7.43V34.05H0.75V33.39Z" fill="black"/>
<path d="M12.9392 34.02H13.7492C13.7492 34.66 13.6726 35.2833 13.5192 35.89C13.3726 36.49 13.1359 37.0633 12.8092 37.61C12.4892 38.1567 12.0659 38.6633 11.5392 39.13C11.0192 39.5967 10.3859 40.0133 9.63922 40.38L9.19922 39.72C10.0592 39.2933 10.7626 38.8 11.3092 38.24C11.8626 37.68 12.2726 37.0567 12.5392 36.37C12.8059 35.6833 12.9392 34.9433 12.9392 34.15V34.02ZM9.58922 34.02H13.3492V34.69H9.58922V34.02ZM15.8092 33.03H16.6292V42.08H15.8092V33.03ZM13.4092 35.52H15.9692V36.19H13.4092V35.52ZM13.3092 37.94H15.8792V38.62H13.3092V37.94Z" fill="black"/>
<path d="M20.6584 34.53H21.3284V34.92C21.3284 35.4333 21.2218 35.9067 21.0084 36.34C20.8018 36.7733 20.5084 37.15 20.1284 37.47C19.7484 37.79 19.3051 38.0333 18.7984 38.2L18.3984 37.54C18.8451 37.4 19.2384 37.2 19.5784 36.94C19.9184 36.68 20.1818 36.3767 20.3684 36.03C20.5618 35.6833 20.6584 35.3133 20.6584 34.92V34.53ZM20.7984 34.53H21.4784V34.92C21.4784 35.28 21.5684 35.6233 21.7484 35.95C21.9351 36.27 22.1951 36.5567 22.5284 36.81C22.8618 37.0567 23.2484 37.2467 23.6884 37.38L23.3084 38.02C22.8018 37.8667 22.3584 37.64 21.9784 37.34C21.6051 37.0333 21.3151 36.6733 21.1084 36.26C20.9018 35.8467 20.7984 35.4 20.7984 34.92V34.53ZM18.6484 34.09H23.4784V34.76H18.6484V34.09ZM20.6584 33H21.4884V34.37H20.6584V33ZM24.5884 33.04H25.4184V38.29H24.5884V33.04ZM25.1884 35.27H26.7484V35.96H25.1884V35.27ZM22.1784 39.04H22.8784V39.28C22.8784 39.6333 22.7918 39.9633 22.6184 40.27C22.4518 40.5767 22.2151 40.85 21.9084 41.09C21.6084 41.33 21.2618 41.53 20.8684 41.69C20.4751 41.8567 20.0551 41.9767 19.6084 42.05L19.2984 41.41C19.6851 41.3567 20.0518 41.2633 20.3984 41.13C20.7451 40.9967 21.0518 40.8367 21.3184 40.65C21.5851 40.4567 21.7951 40.2433 21.9484 40.01C22.1018 39.7767 22.1784 39.5333 22.1784 39.28V39.04ZM22.3284 39.04H23.0384V39.28C23.0384 39.5333 23.1151 39.7733 23.2684 40C23.4284 40.2267 23.6418 40.4367 23.9084 40.63C24.1751 40.8233 24.4784 40.99 24.8184 41.13C25.1651 41.2633 25.5318 41.36 25.9184 41.42L25.6084 42.06C25.1618 41.98 24.7418 41.8567 24.3484 41.69C23.9551 41.53 23.6051 41.33 23.2984 41.09C22.9984 40.8433 22.7618 40.5667 22.5884 40.26C22.4151 39.9533 22.3284 39.6267 22.3284 39.28V39.04ZM19.6484 38.78H25.5684V39.46H19.6484V38.78Z" fill="black"/>
<path d="M34.1877 33.04H35.0177V42.09H34.1877V33.04ZM31.5377 34.02H32.3577C32.3577 34.6733 32.2777 35.3033 32.1177 35.91C31.9643 36.5167 31.721 37.0933 31.3877 37.64C31.0543 38.18 30.621 38.6833 30.0877 39.15C29.5543 39.6167 28.9077 40.0333 28.1477 40.4L27.7077 39.73C28.581 39.31 29.301 38.82 29.8677 38.26C30.4343 37.7 30.8543 37.0767 31.1277 36.39C31.401 35.6967 31.5377 34.95 31.5377 34.15V34.02ZM28.1277 34.02H31.8877V34.69H28.1277V34.02Z" fill="black"/>
<path d="M16.1035 1.43262C16.6199 0.189608 18.3801 0.189611 18.8965 1.43262L21.3379 7.30957C21.4117 7.48736 21.5785 7.60866 21.7695 7.62402L28.1074 8.13281C29.4488 8.24048 29.9907 9.91495 28.9707 10.79L24.1416 14.9316C23.9958 15.0567 23.932 15.2531 23.9766 15.4404L25.4521 21.6328C25.7636 22.9404 24.3414 23.9771 23.1924 23.2744L17.7666 19.957C17.6029 19.8569 17.3971 19.8569 17.2334 19.957L11.8076 23.2744C10.6586 23.9771 9.23645 22.9404 9.54785 21.6328L11.0234 15.4404C11.068 15.2531 11.0042 15.0567 10.8584 14.9316L6.0293 10.79C5.00931 9.91495 5.55124 8.24048 6.89258 8.13281L13.2305 7.62402C13.4215 7.60866 13.5883 7.48736 13.6621 7.30957L16.1035 1.43262Z" fill="black" stroke="black"/>
</svg>
