<svg width="30" height="30" viewBox="0 0 30 30" fill="none" xmlns="http://www.w3.org/2000/svg">
<g clip-path="url(#clip0_13_2030)">
<path d="M2.6731 16.1737V20.0347C2.6731 22.1354 3.87235 24.0517 5.76235 24.9704L7.3351 25.7347C9.83485 26.9497 12.7913 26.7472 15.1021 25.2029L25.5818 18.2009C27.3391 17.0264 28.3943 15.0524 28.3943 12.9389V8.93018L2.6731 16.1737Z" fill="#DFE3E8"/>
<path d="M2.46679 16.971L8.92429 19.9913C10.1513 20.565 11.5853 20.4795 12.735 19.7625C17.3798 16.0013 22.4168 12.9225 27.771 10.392C29.5418 9.28879 29.253 7.63879 27.483 6.32779L22.0538 3.27979C20.613 2.61529 18.981 2.49154 17.4593 2.93929C13.8885 3.99079 7.24054 6.75454 1.76029 13.605C1.72654 13.6433 1.69429 13.6815 1.66354 13.7198C0.807041 14.79 1.22554 16.3905 2.46679 16.971Z" fill="#FA5F3C"/>
<path d="M16.2181 16.041C16.2181 14.5943 15.4261 13.2165 14.5299 12.0803L9.48164 6.62476C8.97989 6.94801 8.47289 7.29451 7.96289 7.66651L12.6061 12.5168C13.6666 13.6298 14.3281 15.0818 14.3874 16.6178C14.3904 16.7003 14.3919 16.7835 14.3919 16.8668V18.4628C14.6521 18.2648 14.9139 18.0698 15.1764 17.8755C15.4501 17.6618 15.6751 17.496 16.2181 17.106V16.041Z" fill="#FAA594"/>
<path d="M21.531 7.97177L17.0272 3.07202C16.4602 3.24902 15.8302 3.46577 15.1477 3.73052L19.6065 8.40827C20.667 9.52127 21.3285 10.9733 21.3877 12.5093C21.3907 12.5918 21.3922 12.675 21.3922 12.7583V13.7678C21.996 13.4115 22.605 13.0635 23.2185 12.7238V11.9318C23.2185 10.485 22.4265 9.10727 21.5302 7.97102L21.531 7.97177Z" fill="#FAA594"/>
<path d="M2.56665 12.6399C3.2889 13.5227 5.00115 15.8199 5.6424 18.4569L7.9509 19.5369C7.3689 17.6784 6.0174 14.0469 3.6954 11.3994C3.3159 11.7954 2.93865 12.2087 2.56665 12.6399Z" fill="#FAA594"/>
</g>
<defs>
<clipPath id="clip0_13_2030">
<rect width="30" height="30" fill="white"/>
</clipPath>
</defs>
</svg>
